<?xml version="1.0" encoding="UTF-8"?>
<svg xmlns="http://www.w3.org/2000/svg" xmlns:xlink="http://www.w3.org/1999/xlink" width="40pt" height="40pt" viewBox="0 0 40 40" version="1.1">
<g id="surface19531202">
<path style=" stroke:none;fill-rule:nonzero;fill:rgb(86.274511%,20.784314%,27.058825%);fill-opacity:1;" d="M 20 4 C 11.164062 4 4 11.164062 4 20 C 4 28.835938 11.164062 36 20 36 C 28.835938 36 36 28.835938 36 20 C 36 11.164062 28.835938 4 20 4 Z M 21.886719 20 C 21.886719 20 26.070312 24.183594 26.277344 24.390625 C 26.796875 24.910156 26.796875 25.757812 26.277344 26.277344 C 25.753906 26.796875 24.910156 26.796875 24.390625 26.277344 C 24.183594 26.070312 20 21.886719 20 21.886719 C 20 21.886719 15.816406 26.070312 15.609375 26.277344 C 15.089844 26.796875 14.242188 26.796875 13.722656 26.277344 C 13.203125 25.753906 13.203125 24.910156 13.722656 24.390625 C 13.929688 24.183594 18.113281 20 18.113281 20 C 18.113281 20 13.929688 15.816406 13.722656 15.609375 C 13.203125 15.089844 13.203125 14.242188 13.722656 13.722656 C 14.246094 13.203125 15.089844 13.203125 15.609375 13.722656 C 15.816406 13.929688 20 18.113281 20 18.113281 C 20 18.113281 24.183594 13.929688 24.390625 13.722656 C 24.910156 13.203125 25.757812 13.203125 26.277344 13.722656 C 26.796875 14.246094 26.796875 15.089844 26.277344 15.609375 C 26.070312 15.816406 21.886719 20 21.886719 20 Z M 21.886719 20 "/>
</g>
</svg>
